<svg width="217" height="17" viewBox="0 0 217 17" fill="none" xmlns="http://www.w3.org/2000/svg">
<path d="M33.414 9.18004H1.65299C1.31104 9.18004 1.03351 8.87459 1.03351 8.49822C1.03351 8.12186 1.31104 7.81641 1.65299 7.81641H33.414C33.756 7.81641 34.0335 8.12186 34.0335 8.49822C34.0335 8.87459 33.756 9.18004 33.414 9.18004Z" fill="#DADADA"/>
<path d="M8.87947 16C8.80211 16 8.72475 15.9718 8.66552 15.916L1.08824 8.70203C1.03203 8.64794 1 8.57487 1 8.49835C1 8.42182 1.03203 8.34875 1.08824 8.29467L8.66612 1.08415C8.78398 0.971951 8.97557 0.971951 9.09343 1.08415C9.21128 1.19634 9.21128 1.37874 9.09343 1.49093L1.7295 8.49835L9.09343 15.5086C9.21128 15.6208 9.21128 15.8032 9.09343 15.9154C9.0342 15.9718 8.95683 16 8.87947 16Z" stroke="#DADADA" stroke-width="0.681818"/>
<path d="M183.62 9.18004H215.381C215.723 9.18004 216 8.87459 216 8.49822C216 8.12186 215.723 7.81641 215.381 7.81641H183.62C183.278 7.81641 183 8.12186 183 8.49822C183 8.87459 183.278 9.18004 183.62 9.18004Z" fill="white"/>
<path d="M208.154 16C208.232 16 208.309 15.9718 208.368 15.916L215.945 8.70203C216.002 8.64794 216.034 8.57487 216.034 8.49835C216.034 8.42182 216.002 8.34875 215.945 8.29467L208.368 1.08415C208.25 0.971951 208.058 0.971951 207.94 1.08415C207.822 1.19634 207.822 1.37874 207.94 1.49093L215.304 8.49835L207.94 15.5086C207.822 15.6208 207.822 15.8032 207.94 15.9154C207.999 15.9718 208.077 16 208.154 16Z" fill="white" stroke="white" stroke-width="0.681818"/>
</svg>
