<svg width="83" height="49" viewBox="0 0 83 49" fill="none" xmlns="http://www.w3.org/2000/svg">
<path d="M32.488 1.768C36.072 1.768 38.92 2.792 41.032 4.84C43.208 6.888 44.296 9.864 44.296 13.768C44.296 17.608 42.664 22.312 39.4 27.88C36.136 33.448 31.88 38.312 26.632 42.472C21.448 46.568 16.488 48.616 11.752 48.616C4.008 48.616 0.136 44.296 0.136 35.656C0.136 30.6 1.736 25.448 4.936 20.2C8.2 14.888 12.36 10.504 17.416 7.048C22.536 3.528 27.56 1.768 32.488 1.768ZM25.96 38.248C29.16 35.176 31.72 31.496 33.64 27.208C35.624 22.92 36.616 19.176 36.616 15.976C36.616 12.712 35.88 10.248 34.408 8.584C32.936 6.856 30.92 5.992 28.36 5.992C23.88 5.992 19.4 8.904 14.92 14.728C10.504 20.488 8.296 26.28 8.296 32.104C8.296 35.24 9.032 37.832 10.504 39.88C11.976 41.864 14.12 42.856 16.936 42.856C19.816 42.856 22.824 41.32 25.96 38.248ZM59.6703 45.16C59.6703 41.768 60.5983 37.672 62.4543 32.872C58.4223 33.192 55.1263 33.608 52.5663 34.12C50.0703 34.632 48.7263 34.888 48.5343 34.888C47.0623 34.888 45.9103 34.344 45.0783 33.256C44.3102 32.168 43.9262 31.176 43.9262 30.28C43.9262 29.32 43.9582 28.712 44.0222 28.456C44.4062 26.408 47.0943 23.112 52.0863 18.568C57.0783 13.96 62.3263 9.8 67.8303 6.088C73.3343 2.376 76.9503 0.52 78.6783 0.52C79.7663 0.52 80.6303 0.872 81.2703 1.576C81.9743 2.28 82.3263 3.208 82.3263 4.36C82.3263 5.448 81.7183 6.984 80.5023 8.968C79.2863 10.888 78.2303 12.68 77.3343 14.344C76.5023 16.008 75.7983 17.48 75.2223 18.76C74.0703 21.384 73.1423 23.656 72.4383 25.576C74.6143 25.448 76.4383 25.384 77.9103 25.384C79.3823 25.384 80.6303 25.448 81.6543 25.576C80.8223 29.736 80.2783 31.912 80.0223 32.104L69.6543 32.296C67.9903 35.304 66.6463 40.328 65.6223 47.368L60.0543 48.232C59.7983 47.4 59.6703 46.376 59.6703 45.16ZM64.8543 26.248C66.3263 22.28 69.3343 16.072 73.8783 7.624C70.0383 9.608 65.5583 12.84 60.4383 17.32C55.3183 21.8 51.8303 25.512 49.9743 28.456C56.5023 27.304 61.4623 26.568 64.8543 26.248Z" fill="#545A2F"/>
</svg>
