<svg width="86" height="48" viewBox="0 0 86 48" fill="none" xmlns="http://www.w3.org/2000/svg">
<path d="M32.488 0.767999C36.072 0.767999 38.92 1.792 41.032 3.84C43.208 5.888 44.296 8.864 44.296 12.768C44.296 16.608 42.664 21.312 39.4 26.88C36.136 32.448 31.88 37.312 26.632 41.472C21.448 45.568 16.488 47.616 11.752 47.616C4.008 47.616 0.136 43.296 0.136 34.656C0.136 29.6 1.736 24.448 4.936 19.2C8.2 13.888 12.36 9.504 17.416 6.048C22.536 2.528 27.56 0.767999 32.488 0.767999ZM25.96 37.248C29.16 34.176 31.72 30.496 33.64 26.208C35.624 21.92 36.616 18.176 36.616 14.976C36.616 11.712 35.88 9.248 34.408 7.584C32.936 5.856 30.92 4.992 28.36 4.992C23.88 4.992 19.4 7.904 14.92 13.728C10.504 19.488 8.296 25.28 8.296 31.104C8.296 34.24 9.032 36.832 10.504 38.88C11.976 40.864 14.12 41.856 16.936 41.856C19.816 41.856 22.824 40.32 25.96 37.248ZM54.1983 12.672C56.8863 9.536 60.4383 6.784 64.8543 4.416C69.2703 1.984 72.9503 0.767999 75.8943 0.767999C78.9023 0.767999 81.2703 1.568 82.9983 3.168C84.7263 4.768 85.5903 7.04 85.5903 9.984C85.5903 12.928 84.4063 15.616 82.0383 18.048C79.6703 20.416 74.9343 23.424 67.8303 27.072C60.7263 30.656 54.1343 35.072 48.0543 40.32C56.8223 38.976 64.9823 38.304 72.5343 38.304C74.2623 38.304 75.6383 38.368 76.6623 38.496V44.544C75.2543 44.8 74.2943 44.928 73.7823 44.928C73.3343 44.864 72.5663 44.864 71.4783 44.928C70.3903 44.992 68.2783 45.12 65.1423 45.312C62.0063 45.44 58.7743 45.664 55.4463 45.984C52.1823 46.304 49.9423 46.56 48.7263 46.752C47.5743 46.88 46.8703 46.944 46.6143 46.944C45.5903 46.944 44.6943 46.304 43.9262 45.024C43.1582 43.68 42.7742 42.4 42.7742 41.184C43.2862 39.2 45.8143 36.32 50.3583 32.544C54.9663 28.768 60.8543 25.024 68.0223 21.312C70.1343 20.224 72.0863 18.816 73.8783 17.088C75.6703 15.36 76.5663 13.728 76.5663 12.192C76.5663 9.248 74.9983 7.776 71.8623 7.776C67.7023 7.776 62.3583 10.464 55.8303 15.84L54.1983 12.672Z" fill="#545A2F"/>
</svg>
