<svg width="67" height="50" viewBox="0 0 67 50" fill="none" xmlns="http://www.w3.org/2000/svg">
<path d="M32.488 2.768C36.072 2.768 38.92 3.792 41.032 5.84C43.208 7.888 44.296 10.864 44.296 14.768C44.296 18.608 42.664 23.312 39.4 28.88C36.136 34.448 31.88 39.312 26.632 43.472C21.448 47.568 16.488 49.616 11.752 49.616C4.008 49.616 0.136 45.296 0.136 36.656C0.136 31.6 1.736 26.448 4.936 21.2C8.2 15.888 12.36 11.504 17.416 8.048C22.536 4.528 27.56 2.768 32.488 2.768ZM25.96 39.248C29.16 36.176 31.72 32.496 33.64 28.208C35.624 23.92 36.616 20.176 36.616 16.976C36.616 13.712 35.88 11.248 34.408 9.584C32.936 7.856 30.92 6.992 28.36 6.992C23.88 6.992 19.4 9.904 14.92 15.728C10.504 21.488 8.296 27.28 8.296 33.104C8.296 36.24 9.032 38.832 10.504 40.88C11.976 42.864 14.12 43.856 16.936 43.856C19.816 43.856 22.824 42.32 25.96 39.248ZM66.5823 4.592C66.3903 5.68 65.0783 8.464 62.6463 12.944C54.9663 26.768 50.9023 38.544 50.4543 48.272L44.3102 49.232C43.9262 48.208 43.7342 46.512 43.7342 44.144C43.7342 38.448 47.4463 28.048 54.8703 12.944C52.4383 13.904 50.4543 14.384 48.9183 14.384C47.3823 14.384 45.9423 14.128 44.5983 13.616L46.7103 8.72C47.4783 8.912 48.2463 9.008 49.0143 9.008C51.0623 9.008 53.1423 8.368 55.2543 7.088C57.3663 5.808 58.9983 4.368 60.1503 2.768C61.3023 1.168 62.2943 0.367998 63.1263 0.367998C63.9583 0.367998 64.7583 0.655998 65.5263 1.232C66.3583 1.808 66.7743 2.448 66.7743 3.152C66.7743 3.856 66.7103 4.336 66.5823 4.592Z" fill="#545A2F"/>
</svg>
