<svg width="86" height="48" viewBox="0 0 86 48" fill="none" xmlns="http://www.w3.org/2000/svg">
<path d="M32.488 0.767999C36.072 0.767999 38.92 1.792 41.032 3.84C43.208 5.888 44.296 8.864 44.296 12.768C44.296 16.608 42.664 21.312 39.4 26.88C36.136 32.448 31.88 37.312 26.632 41.472C21.448 45.568 16.488 47.616 11.752 47.616C4.008 47.616 0.136 43.296 0.136 34.656C0.136 29.6 1.736 24.448 4.936 19.2C8.2 13.888 12.36 9.504 17.416 6.048C22.536 2.528 27.56 0.767999 32.488 0.767999ZM25.96 37.248C29.16 34.176 31.72 30.496 33.64 26.208C35.624 21.92 36.616 18.176 36.616 14.976C36.616 11.712 35.88 9.248 34.408 7.584C32.936 5.856 30.92 4.992 28.36 4.992C23.88 4.992 19.4 7.904 14.92 13.728C10.504 19.488 8.296 25.28 8.296 31.104C8.296 34.24 9.032 36.832 10.504 38.88C11.976 40.864 14.12 41.856 16.936 41.856C19.816 41.856 22.824 40.32 25.96 37.248ZM85.3983 9.216C85.3983 12.352 83.7023 15.168 80.3103 17.664C76.9823 20.16 73.6223 21.92 70.2303 22.944C72.8543 24.48 74.8383 25.92 76.1823 27.264C77.5903 28.608 78.2943 30.144 78.2943 31.872C78.2943 36.096 75.9263 39.808 71.1903 43.008C66.4543 46.144 61.3663 47.712 55.9263 47.712C53.3023 47.712 50.6783 47.296 48.0543 46.464C45.4943 45.632 43.7022 44.64 42.6782 43.488L46.9983 39.456C47.8943 40.352 49.0783 41.152 50.5503 41.856C52.0863 42.56 53.3983 42.912 54.4863 42.912C58.2623 42.912 61.6863 41.952 64.7583 40.032C67.8943 38.048 69.4623 35.68 69.4623 32.928C69.4623 31.264 68.6943 29.792 67.1583 28.512C65.6223 27.232 63.5743 26.24 61.0143 25.536C59.5423 25.088 58.8063 24.352 58.8063 23.328C58.8063 21.92 61.6863 20.544 67.4463 19.2C69.5583 18.688 71.5103 17.856 73.3023 16.704C75.0943 15.488 75.9903 14.176 75.9903 12.768C75.9903 11.296 75.4783 10.176 74.4543 9.408C73.4943 8.576 72.2783 8.16 70.8063 8.16C69.3343 8.16 67.0623 8.96 63.9903 10.56C60.9823 12.096 57.8463 14.112 54.5823 16.608L53.0463 13.44C55.7343 10.24 59.3823 7.424 63.9903 4.992C68.6623 2.56 72.4063 1.344 75.2223 1.344C78.0383 1.344 80.4383 2.144 82.4223 3.744C84.4063 5.28 85.3983 7.104 85.3983 9.216Z" fill="#545A2F"/>
</svg>
