<svg width="124" height="124" viewBox="0 0 124 124" fill="none" xmlns="http://www.w3.org/2000/svg">
<circle cx="62" cy="62" r="62" fill="#99A18E"/>
<path d="M63 60.3617L63 27.6383C63 27.2859 62.552 27 62 27C61.448 27 61 27.2859 61 27.6383L61 60.3617C61 60.7141 61.448 61 62 61C62.552 61 63 60.7141 63 60.3617Z" fill="white"/>
<path d="M72.4072 37.759C72.4072 37.6535 72.3688 37.548 72.2927 37.4673L62.4567 27.1359C62.383 27.0593 62.2833 27.0156 62.179 27.0156C62.0747 27.0156 61.975 27.0593 61.9013 27.1359L52.07 37.4681C51.9171 37.6288 51.9171 37.89 52.07 38.0507C52.223 38.2114 52.4717 38.2114 52.6247 38.0507L62.179 28.0103L71.7373 38.0507C71.8902 38.2114 72.1389 38.2114 72.2919 38.0507C72.3688 37.9699 72.4072 37.8645 72.4072 37.759Z" fill="white" stroke="white" stroke-width="0.681818"/>
<path d="M34.8 89V76.76H35.988V82.286H43.422V76.76H44.592V89H43.422V83.366H35.988V89H34.8ZM50.6965 80.954C52.5145 80.954 53.7205 81.908 53.7205 83.708V89H52.9105L52.7125 87.56C52.1365 88.514 51.1105 89.144 49.7065 89.144C48.1585 89.144 47.1685 88.298 47.1685 86.93C47.1685 85.148 48.8065 84.122 51.1465 84.122C51.7405 84.122 52.1905 84.14 52.6045 84.194V83.654C52.6045 82.538 51.8125 81.98 50.5885 81.98C49.7245 81.98 48.8425 82.232 47.9605 82.646L47.5825 81.71C48.6625 81.206 49.6885 80.954 50.6965 80.954ZM49.8865 88.118C51.5245 88.118 52.5505 86.93 52.6045 85.112C52.1725 85.058 51.8305 85.04 51.3085 85.04C49.4365 85.04 48.3205 85.688 48.3205 86.858C48.3205 87.65 48.8965 88.118 49.8865 88.118ZM61.2358 84.914C62.1358 85.166 62.7118 85.814 62.7118 86.822C62.7118 88.208 61.6858 89 60.1378 89H56.4118V81.044H59.8318C61.3618 81.044 62.3338 81.872 62.3338 83.15C62.3338 84.032 61.9198 84.59 61.2358 84.914ZM59.8138 82.034H57.5098V84.464H59.8138C60.8038 84.464 61.2358 83.906 61.2358 83.24C61.2358 82.592 60.8038 82.034 59.8138 82.034ZM60.1198 88.01C61.1458 88.01 61.6138 87.47 61.6138 86.732C61.6138 86.012 61.1458 85.454 60.1198 85.454H57.5098V88.01H60.1198ZM68.2873 80.846C70.5013 80.846 71.8153 82.376 71.8153 84.698C71.8153 84.95 71.7973 85.202 71.7613 85.472H65.3893C65.5693 87.164 66.8653 88.172 68.3593 88.172C69.4753 88.172 70.1773 87.83 70.7893 87.2L71.4193 87.992C70.6093 88.766 69.6373 89.198 68.3773 89.198C65.9653 89.198 64.2733 87.47 64.2733 85.004C64.2733 82.7 65.9293 80.846 68.2873 80.846ZM68.2693 81.872C66.7933 81.872 65.6413 82.916 65.4253 84.5H70.7353C70.6993 82.808 69.7273 81.872 68.2693 81.872ZM78.1132 80.882C80.3812 80.882 82.0372 82.61 82.0372 84.986C82.0372 87.434 80.3812 89.18 78.0952 89.18C76.7812 89.18 75.6652 88.586 74.9992 87.686C75.0172 88.298 75.0352 89.036 75.0352 89.828V92.96H73.9372V81.044H74.7652L74.9992 82.376C75.6832 81.458 76.7632 80.882 78.1132 80.882ZM78.0232 88.154C79.7332 88.154 80.9392 86.858 80.9392 85.04C80.9392 83.204 79.7332 81.908 78.0232 81.908C76.2412 81.908 74.9812 83.168 74.9812 84.986C74.9812 86.876 76.2592 88.154 78.0232 88.154ZM82.8274 89V88.964L85.7794 84.806L83.1154 81.08V81.044H84.3754L85.7794 83.042C85.9954 83.33 86.1934 83.636 86.4094 84.014C86.6254 83.654 86.8594 83.312 87.0574 83.024L88.4794 81.044H89.7034V81.08L87.0394 84.806L89.9914 88.964V89H88.7314L87.0934 86.678C86.8414 86.336 86.6434 86.03 86.4094 85.616C86.1574 86.03 85.9594 86.354 85.7074 86.696L84.0514 89H82.8274Z" fill="white"/>
</svg>
